<svg xmlns="http://www.w3.org/2000/svg" viewBox="0 0 469.3 469.3"><style type="text/css">  
	.st0{fill:#515151;}
	.st1{fill:none;stroke:#515151;stroke-width:70;stroke-linecap:round;stroke-miterlimit:10;}
</style><path class="st0" d="M234.7 170.7c-35.3 0-64 28.7-64 64s28.7 64 64 64 64-28.7 64-64S270 170.7 234.7 170.7z"/><path class="st0" d="M234.7 74.7C128 74.7 36.9 141 0 234.7c36.9 93.7 128 160 234.7 160 106.8 0 197.8-66.3 234.7-160C432.4 141 341.4 74.7 234.7 74.7zM234.7 341.3c-58.9 0-106.7-47.8-106.7-106.7S175.8 128 234.7 128s106.7 47.8 106.7 106.7S293.5 341.3 234.7 341.3z"/><line class="st1" x1="31.1" y1="431.1" x2="433.8" y2="35.7"/></svg>