<svg id="list" xmlns="http://www.w3.org/2000/svg" width="50" height="40.541" viewBox="0 0 50 40.541">
  <g id="Group_10" data-name="Group 10" transform="translate(0 0)">
    <g id="Group_9" data-name="Group 9">
      <path id="Path_5" data-name="Path 5" d="M4.054,37.333a4.054,4.054,0,1,0,4.054,4.054A4.049,4.049,0,0,0,4.054,37.333Z" transform="translate(0 -37.333)"/>
      <path id="Path_6" data-name="Path 6" d="M4.054,165.333a4.054,4.054,0,1,0,4.054,4.054A4.049,4.049,0,0,0,4.054,165.333Z" transform="translate(0 -149.117)"/>
      <path id="Path_7" data-name="Path 7" d="M4.054,293.333a4.054,4.054,0,1,0,4.054,4.054A4.049,4.049,0,0,0,4.054,293.333Z" transform="translate(0 -260.901)"/>
      <rect id="Rectangle_4" data-name="Rectangle 4" width="37.838" height="5.405" transform="translate(12.162 33.784)"/>
      <rect id="Rectangle_5" data-name="Rectangle 5" width="37.838" height="5.405" transform="translate(12.162 1.351)"/>
      <rect id="Rectangle_6" data-name="Rectangle 6" width="37.838" height="5.405" transform="translate(12.162 17.568)"/>
    </g>
  </g>
</svg>
