<svg id="mail" xmlns="http://www.w3.org/2000/svg" width="50" height="38.086" viewBox="0 0 50 38.086">
  <g id="Group_2" data-name="Group 2" transform="translate(2.512)">
    <g id="Group_1" data-name="Group 1">
      <path id="Path_1" data-name="Path 1" d="M68.815,61H27.6a4.343,4.343,0,0,0-1.883.44L48.112,83.831l5.018-4.823h0L70.7,61.441A4.344,4.344,0,0,0,68.815,61Z" transform="translate(-25.721 -61)"/>
    </g>
  </g>
  <g id="Group_4" data-name="Group 4" transform="translate(33.029 2.512)">
    <g id="Group_3" data-name="Group 3" transform="translate(0 0)">
      <path id="Path_2" data-name="Path 2" d="M354.745,86.728l-16.532,16.531,16.531,16.531a4.343,4.343,0,0,0,.44-1.883V88.61A4.343,4.343,0,0,0,354.745,86.728Z" transform="translate(-338.213 -86.728)"/>
    </g>
  </g>
  <g id="Group_6" data-name="Group 6" transform="translate(0 2.512)">
    <g id="Group_5" data-name="Group 5">
      <path id="Path_3" data-name="Path 3" d="M.44,86.721A4.344,4.344,0,0,0,0,88.6v29.3a4.344,4.344,0,0,0,.44,1.882l16.532-16.531Z" transform="translate(0 -86.721)"/>
    </g>
  </g>
  <g id="Group_8" data-name="Group 8" transform="translate(2.511 21.114)">
    <g id="Group_7" data-name="Group 7">
      <path id="Path_4" data-name="Path 4" d="M54.16,277.211l-5.019,4.823a1.464,1.464,0,0,1-2.071,0l-4.824-4.824L25.714,293.742a4.344,4.344,0,0,0,1.883.441H68.808a4.344,4.344,0,0,0,1.883-.44Z" transform="translate(-25.714 -277.211)"/>
    </g>
  </g>
</svg>
